<svg version="1.1" xmlns="http://www.w3.org/2000/svg" viewBox="0 0 1367.0978324738885 659.2475926098004" width="1367.0978324738885" height="659.2475926098004">
  <!-- svg-source:excalidraw -->
  
  <defs>
    <style class="style-fonts">
      @font-face {
        font-family: "Virgil";
        src: url("https://file%2B.vscode-resource.vscode-cdn.net/home/fucloud/.vscode/extensions/pomdtr.excalidraw-editor-3.6.1/public//dist/excalidraw-assets/Virgil.woff2");
      }
      @font-face {
        font-family: "Cascadia";
        src: url("https://file%2B.vscode-resource.vscode-cdn.net/home/fucloud/.vscode/extensions/pomdtr.excalidraw-editor-3.6.1/public//dist/excalidraw-assets/Cascadia.woff2");
      }
    </style>
    
  </defs>
  <rect x="0" y="0" width="1367.0978324738885" height="659.2475926098004" fill="#ffffff"></rect><g stroke-linecap="round"><g transform="translate(722.1394071604967 70.76238325730174) rotate(0 315.59840368151333 0)"><path d="M0 0 C131.53 0, 263.06 0, 631.2 0" stroke="#000000" stroke-width="1.5" fill="none" stroke-dasharray="1.5 7"></path></g></g><mask></mask><g stroke-linecap="round"><g transform="translate(722.0377036441658 385.8047680641621) rotate(0 315.44138628774533 0)"><path d="M0 0 C145.59 0, 291.19 0, 630.88 0" stroke="#000000" stroke-width="1.5" fill="none" stroke-dasharray="1.5 7"></path></g></g><mask></mask><g stroke-linecap="round"><g transform="translate(722.2411106768276 123.26944739177907) rotate(0 315.5475519233478 0)"><path d="M0 0 C166.25 0, 332.5 0, 631.1 0" stroke="#000000" stroke-width="1.5" fill="none" stroke-dasharray="1.5 7"></path></g></g><mask></mask><g stroke-linecap="round"><g transform="translate(722.2411106768276 438.3118321986376) rotate(0 315.131813619481 0)"><path d="M0 0 C198.87 0, 397.73 0, 630.26 0" stroke="#000000" stroke-width="1.5" fill="none" stroke-dasharray="1.5 7"></path></g></g><mask></mask><g stroke-linecap="round"><g transform="translate(722.3428141931585 175.77651152625458) rotate(0 315.0809618613156 0)"><path d="M0 0 C190.62 0, 381.24 0, 630.16 0" stroke="#000000" stroke-width="1.5" fill="none" stroke-dasharray="1.5 7"></path></g></g><mask></mask><g stroke-linecap="round"><g transform="translate(722.1394071604967 490.818896333114) rotate(0 315.3507384513006 0)"><path d="M0 0 C155.16 0, 310.32 0, 630.7 0" stroke="#000000" stroke-width="1.5" fill="none" stroke-dasharray="1.5 7"></path></g></g><mask></mask><g stroke-linecap="round"><g transform="translate(722.2411106768276 228.2835756607319) rotate(0 315.33968277141446 0)"><path d="M0 0 C172.81 0, 345.62 0, 630.68 0" stroke="#000000" stroke-width="1.5" fill="none" stroke-dasharray="1.5 7"></path></g></g><mask></mask><g stroke-linecap="round"><g transform="translate(722.1394071604967 543.3259604675914) rotate(0 315.558607603234 0)"><path d="M0 0 C139.26 0, 278.52 0, 631.12 0" stroke="#000000" stroke-width="1.5" fill="none" stroke-dasharray="1.5 7"></path></g></g><mask></mask><g stroke-linecap="round"><g transform="translate(722.2411106768276 280.79063979520834) rotate(0 315.5475519233478 0)"><path d="M0 0 C142.88 0, 285.76 0, 631.1 0" stroke="#000000" stroke-width="1.5" fill="none" stroke-dasharray="1.5 7"></path></g></g><mask></mask><g stroke-linecap="round"><g transform="translate(722.2016117615998 595.8330246020678) rotate(0 315.31963615074903 0)"><path d="M0 0 C213.1 0, 426.19 0, 630.64 0" stroke="#000000" stroke-width="1.5" fill="none" stroke-dasharray="1.5 7"></path></g></g><mask></mask><g stroke-linecap="round"><g transform="translate(722.2411106768276 333.2977039296866) rotate(0 315.5475519233478 0)"><path d="M0 0 C194.45 0, 388.89 0, 631.1 0" stroke="#000000" stroke-width="1.5" fill="none" stroke-dasharray="1.5 7"></path></g></g><mask></mask><g stroke-linecap="round"><g transform="translate(985.1388075358262 333.21896558658136) rotate(89.99999999999994 314.958324970699 2.2737367544323206e-13)"><path d="M0 0 C249.57 0, 499.14 0, 629.92 0" stroke="#000000" stroke-width="1.5" fill="none" stroke-dasharray="1.5 7"></path></g></g><mask></mask><g stroke-linecap="round"><g transform="translate(670.0402475995301 333.27514071601854) rotate(89.99999999999994 315.0145001001366 2.2737367544323206e-13)"><path d="M0 0 C231.59 0, 463.17 0, 630.03 0" stroke="#000000" stroke-width="1.5" fill="none" stroke-dasharray="1.5 7"></path></g></g><mask></mask><g stroke-linecap="round"><g transform="translate(932.5300398850208 333.3206691029127) rotate(89.99999999999994 315.06002848702985 2.2737367544323206e-13)"><path d="M0 0 C185.23 0, 370.46 0, 630.12 0" stroke="#000000" stroke-width="1.5" fill="none" stroke-dasharray="1.5 7"></path></g></g><mask></mask><g stroke-linecap="round"><g transform="translate(617.2236107967905 333.1689750804171) rotate(89.99999999999994 315.3240727684009 2.2737367544323206e-13)"><path d="M0 0 C222.78 0, 445.55 0, 630.65 0" stroke="#000000" stroke-width="1.5" fill="none" stroke-dasharray="1.5 7"></path></g></g><mask></mask><g stroke-linecap="round"><g transform="translate(879.9168101149411 333.0110964346477) rotate(89.99999999999994 315.1661941226324 2.2737367544323206e-13)"><path d="M0 0 C144.75 0, 289.5 0, 630.33 0" stroke="#000000" stroke-width="1.5" fill="none" stroke-dasharray="1.5 7"></path></g></g><mask></mask><g stroke-linecap="round"><g transform="translate(564.8735640560816 333.4276959905146) rotate(89.99999999999994 315.1670553746329 2.2737367544323206e-13)"><path d="M0 0 C197.64 0, 395.29 0, 630.33 0" stroke="#000000" stroke-width="1.5" fill="none" stroke-dasharray="1.5 7"></path></g></g><mask></mask><g stroke-linecap="round"><g transform="translate(827.3535708510261 333.0672715640858) rotate(89.99999999999994 315.22236925207005 2.2737367544323206e-13)"><path d="M0 0 C190.19 0, 380.38 0, 630.44 0" stroke="#000000" stroke-width="1.5" fill="none" stroke-dasharray="1.5 7"></path></g></g><mask></mask><g stroke-linecap="round"><g transform="translate(512.0748490352365 333.13604510414734) rotate(89.99999999999994 315.45870626100066 2.2737367544323206e-13)"><path d="M0 0 C250.43 0, 500.86 0, 630.92 0" stroke="#000000" stroke-width="1.5" fill="none" stroke-dasharray="1.5 7"></path></g></g><mask></mask><g stroke-linecap="round"><g transform="translate(775.0035241103186 333.3259924741842) rotate(89.99999999999994 315.06535185830205 2.2737367544323206e-13)"><path d="M0 0 C194.39 0, 388.79 0, 630.13 0" stroke="#000000" stroke-width="1.5" fill="none" stroke-dasharray="1.5 7"></path></g></g><mask></mask><g stroke-linecap="round"><g transform="translate(459.6694884170912 333.034341587816) rotate(89.99999999999994 315.35700274466967 2.2737367544323206e-13)"><path d="M0 0 C158.82 0, 317.64 0, 630.71 0" stroke="#000000" stroke-width="1.5" fill="none" stroke-dasharray="1.5 7"></path></g></g><mask></mask><g stroke-linecap="round"><g transform="translate(722.5473117340074 333.27514071601854) rotate(89.99999999999994 315.0145001001366 2.2737367544323206e-13)"><path d="M0 0 C219.59 0, 439.19 0, 630.03 0" stroke="#000000" stroke-width="1.5" fill="none" stroke-dasharray="1.5 7"></path></g></g><mask></mask><g stroke-linecap="round"><g transform="translate(1038.1277356457085 333.3206691029127) rotate(89.99999999999994 315.06002848702985 2.2737367544323206e-13)"><path d="M0 0 C142.81 0, 285.62 0, 630.12 0" stroke="#000000" stroke-width="1.5" fill="none" stroke-dasharray="1.5 7"></path></g></g><mask></mask><g stroke-linecap="round"><g transform="translate(721.8965012126072 648.3120390288059) rotate(0 315.47219142524534 0)"><path d="M0 0 C138.97 0, 277.95 0, 630.94 0" stroke="#000000" stroke-width="1.5" fill="none" stroke-dasharray="1.5 7"></path></g></g><mask></mask><g stroke-linecap="round"><g transform="translate(406.7810558774464 333.2424337964894) rotate(89.99999999999994 315.35960679225354 2.2737367544323206e-13)"><path d="M0 0 C233.27 0, 466.54 0, 630.72 0" stroke="#000000" stroke-width="1.5" fill="none" stroke-dasharray="1.5 7"></path></g></g><mask></mask><g stroke-linecap="round"><g transform="translate(722.1394071604967 17.845293080794363) rotate(0 315.59840368151333 0)"><path d="M0 0 C140.18 0, 280.35 0, 631.2 0" stroke="#000000" stroke-width="1.5" fill="none" stroke-dasharray="1.5 7"></path></g></g><mask></mask><g stroke-linecap="round"><g transform="translate(10 326.7396238640863) rotate(0 316.7189463863322 0)"><path d="M0 0 C207.79 0, 415.59 0, 633.44 0 M0 0 C221.03 0, 442.06 0, 633.44 0" stroke="#000000" stroke-width="4" fill="none"></path></g><g transform="translate(10 326.7396238640863) rotate(0 316.7189463863322 0)"><path d="M605.25 10.26 C614.49 6.89, 623.74 3.53, 633.44 0 M605.25 10.26 C615.08 6.68, 624.92 3.1, 633.44 0" stroke="#000000" stroke-width="4" fill="none"></path></g><g transform="translate(10 326.7396238640863) rotate(0 316.7189463863322 0)"><path d="M605.25 -10.26 C614.49 -6.89, 623.74 -3.53, 633.44 0 M605.25 -10.26 C615.08 -6.68, 624.92 -3.1, 633.44 0" stroke="#000000" stroke-width="4" fill="none"></path></g></g><mask></mask><g stroke-linecap="round"><g transform="translate(8.702608488960777 326.7189463863324) rotate(270 316.7189463863322 0)"><path d="M0 0 C144.06 0, 288.13 0, 633.44 0 M0 0 C206.92 0, 413.83 0, 633.44 0" stroke="#000000" stroke-width="4" fill="none"></path></g><g transform="translate(8.702608488960777 326.7189463863324) rotate(270 316.7189463863322 0)"><path d="M605.25 10.26 C611.66 7.93, 618.07 5.59, 633.44 0 M605.25 10.26 C614.46 6.91, 623.66 3.56, 633.44 0" stroke="#000000" stroke-width="4" fill="none"></path></g><g transform="translate(8.702608488960777 326.7189463863324) rotate(270 316.7189463863322 0)"><path d="M605.25 -10.26 C611.66 -7.93, 618.07 -5.59, 633.44 0 M605.25 -10.26 C614.46 -6.91, 623.66 -3.56, 633.44 0" stroke="#000000" stroke-width="4" fill="none"></path></g></g><mask></mask><g stroke-linecap="round"><g transform="translate(327.5035453520893 324.5477873048394) rotate(0 52.00099945696684 -24.78314218765172)"><path d="M1.13 0.69 C17.95 -7.37, 84.47 -40.23, 101.57 -48.48 M0.27 0.01 C17.39 -8.39, 86.53 -41.76, 103.73 -50.26" stroke="#e03131" stroke-width="1" fill="none"></path></g><g transform="translate(327.5035453520893 324.5477873048394) rotate(0 52.00099945696684 -24.78314218765172)"><path d="M84.04 -30.41 C91.41 -34.72, 98.29 -45.99, 104.05 -51.01 M83.45 -29.27 C90.37 -35.74, 97.74 -43.24, 103.85 -50.81" stroke="#e03131" stroke-width="1" fill="none"></path></g><g transform="translate(327.5035453520893 324.5477873048394) rotate(0 52.00099945696684 -24.78314218765172)"><path d="M75.05 -48.85 C85.6 -46.7, 95.66 -51.42, 104.05 -51.01 M74.46 -47.72 C84.4 -47.73, 94.89 -48.81, 103.85 -50.81" stroke="#e03131" stroke-width="1" fill="none"></path></g></g><mask></mask><g stroke-linecap="round"><g transform="translate(11.241995678763715 64.34163992768981) rotate(0 315.5984036815134 0)"><path d="M0 0 C237.97 0, 475.95 0, 631.2 0" stroke="#000000" stroke-width="1.5" fill="none" stroke-dasharray="1.5 7"></path></g></g><mask></mask><g stroke-linecap="round"><g transform="translate(11.14029216243273 379.3840247345497) rotate(0 315.4413862877452 0)"><path d="M0 0 C175.31 0, 350.61 0, 630.88 0" stroke="#000000" stroke-width="1.5" fill="none" stroke-dasharray="1.5 7"></path></g></g><mask></mask><g stroke-linecap="round"><g transform="translate(11.343699195094587 116.84870406216669) rotate(0 315.5475519233477 0)"><path d="M0 0 C145.58 0, 291.16 0, 631.1 0" stroke="#000000" stroke-width="1.5" fill="none" stroke-dasharray="1.5 7"></path></g></g><mask></mask><g stroke-linecap="round"><g transform="translate(11.343699195094587 431.8910888690257) rotate(0 315.1318136194811 0)"><path d="M0 0 C148.5 0, 297.01 0, 630.26 0" stroke="#000000" stroke-width="1.5" fill="none" stroke-dasharray="1.5 7"></path></g></g><mask></mask><g stroke-linecap="round"><g transform="translate(11.445402711425231 169.3557681966422) rotate(0 315.08096186131553 0)"><path d="M0 0 C180.64 0, 361.27 0, 630.16 0" stroke="#000000" stroke-width="1.5" fill="none" stroke-dasharray="1.5 7"></path></g></g><mask></mask><g stroke-linecap="round"><g transform="translate(11.241995678763715 484.39815300350165) rotate(0 315.35073845130063 0)"><path d="M0 0 C234.28 0, 468.57 0, 630.7 0" stroke="#000000" stroke-width="1.5" fill="none" stroke-dasharray="1.5 7"></path></g></g><mask></mask><g stroke-linecap="round"><g transform="translate(11.343699195094246 221.86283233111953) rotate(0 315.33968277141446 0)"><path d="M0 0 C171.24 0, 342.47 0, 630.68 0" stroke="#000000" stroke-width="1.5" fill="none" stroke-dasharray="1.5 7"></path></g></g><mask></mask><g stroke-linecap="round"><g transform="translate(11.241995678763487 536.905217137979) rotate(0 315.55860760323407 0)"><path d="M0 0 C228.45 0, 456.9 0, 631.12 0" stroke="#000000" stroke-width="1.5" fill="none" stroke-dasharray="1.5 7"></path></g></g><mask></mask><g stroke-linecap="round"><g transform="translate(11.343699195094587 274.36989646559596) rotate(0 315.5475519233477 0)"><path d="M0 0 C133.67 0, 267.35 0, 631.1 0" stroke="#000000" stroke-width="1.5" fill="none" stroke-dasharray="1.5 7"></path></g></g><mask></mask><g stroke-linecap="round"><g transform="translate(11.30420027986679 589.4122812724559) rotate(0 315.3196361507491 0)"><path d="M0 0 C241.98 0, 483.97 0, 630.64 0" stroke="#000000" stroke-width="1.5" fill="none" stroke-dasharray="1.5 7"></path></g></g><mask></mask><g stroke-linecap="round"><g transform="translate(11.343699195094587 326.87696060007374) rotate(0 315.5475519233477 0)"><path d="M0 0 C147.75 0, 295.5 0, 631.1 0" stroke="#000000" stroke-width="1.5" fill="none" stroke-dasharray="1.5 7"></path></g></g><mask></mask><g stroke-linecap="round"><g transform="translate(274.24139605409323 326.79822225696853) rotate(89.99999999999994 314.95832497069904 2.2737367544323206e-13)"><path d="M0 0 C197.31 0, 394.62 0, 629.92 0" stroke="#000000" stroke-width="1.5" fill="none" stroke-dasharray="1.5 7"></path></g></g><mask></mask><g stroke-linecap="round"><g transform="translate(-40.85716388220317 326.8543973864066) rotate(89.99999999999994 315.01450010013656 2.2737367544323206e-13)"><path d="M0 0 C229.96 0, 459.92 0, 630.03 0" stroke="#000000" stroke-width="1.5" fill="none" stroke-dasharray="1.5 7"></path></g></g><mask></mask><g stroke-linecap="round"><g transform="translate(221.63262840328753 326.89992577329986) rotate(89.99999999999994 315.0600284870299 2.2737367544323206e-13)"><path d="M0 0 C206.12 0, 412.23 0, 630.12 0" stroke="#000000" stroke-width="1.5" fill="none" stroke-dasharray="1.5 7"></path></g></g><mask></mask><g stroke-linecap="round"><g transform="translate(-93.67380068494253 326.7482317508043) rotate(89.99999999999994 315.32407276840087 2.2737367544323206e-13)"><path d="M0 0 C208.75 0, 417.5 0, 630.65 0" stroke="#000000" stroke-width="1.5" fill="none" stroke-dasharray="1.5 7"></path></g></g><mask></mask><g stroke-linecap="round"><g transform="translate(169.01939863320774 326.5903531050353) rotate(89.99999999999994 315.1661941226324 2.2737367544323206e-13)"><path d="M0 0 C190.29 0, 380.59 0, 630.33 0" stroke="#000000" stroke-width="1.5" fill="none" stroke-dasharray="1.5 7"></path></g></g><mask></mask><g stroke-linecap="round"><g transform="translate(-146.02384742565164 327.00695266090224) rotate(89.99999999999994 315.16705537463287 2.2737367544323206e-13)"><path d="M0 0 C226.11 0, 452.22 0, 630.33 0" stroke="#000000" stroke-width="1.5" fill="none" stroke-dasharray="1.5 7"></path></g></g><mask></mask><g stroke-linecap="round"><g transform="translate(116.45615936929289 326.64652823447295) rotate(89.99999999999994 315.22236925207 2.2737367544323206e-13)"><path d="M0 0 C135.01 0, 270.03 0, 630.44 0" stroke="#000000" stroke-width="1.5" fill="none" stroke-dasharray="1.5 7"></path></g></g><mask></mask><g stroke-linecap="round"><g transform="translate(-198.8225624464966 326.71530177453496) rotate(89.99999999999994 315.45870626100054 2.2737367544323206e-13)"><path d="M0 0 C236.39 0, 472.78 0, 630.92 0" stroke="#000000" stroke-width="1.5" fill="none" stroke-dasharray="1.5 7"></path></g></g><mask></mask><g stroke-linecap="round"><g transform="translate(64.10611262858538 326.9052491445723) rotate(89.99999999999994 315.0653518583021 2.2737367544323206e-13)"><path d="M0 0 C214.53 0, 429.07 0, 630.13 0" stroke="#000000" stroke-width="1.5" fill="none" stroke-dasharray="1.5 7"></path></g></g><mask></mask><g stroke-linecap="round"><g transform="translate(-251.22792306464225 326.61359825820364) rotate(89.99999999999994 315.3570027446696 2.2737367544323206e-13)"><path d="M0 0 C129.58 0, 259.17 0, 630.71 0" stroke="#000000" stroke-width="1.5" fill="none" stroke-dasharray="1.5 7"></path></g></g><mask></mask><g stroke-linecap="round"><g transform="translate(11.649900252274392 326.8543973864066) rotate(89.99999999999994 315.0145001001367 2.2737367544323206e-13)"><path d="M0 0 C162.14 0, 324.29 0, 630.03 0" stroke="#000000" stroke-width="1.5" fill="none" stroke-dasharray="1.5 7"></path></g></g><mask></mask><g stroke-linecap="round"><g transform="translate(327.2303241639755 326.89992577329986) rotate(89.99999999999994 315.06002848702985 2.2737367544323206e-13)"><path d="M0 0 C237.94 0, 475.89 0, 630.12 0" stroke="#000000" stroke-width="1.5" fill="none" stroke-dasharray="1.5 7"></path></g></g><mask></mask><g stroke-linecap="round"><g transform="translate(10.999089730874175 641.8912956991935) rotate(0 315.4721914252454 0)"><path d="M0 0 C152.32 0, 304.65 0, 630.94 0" stroke="#000000" stroke-width="1.5" fill="none" stroke-dasharray="1.5 7"></path></g></g><mask></mask><g stroke-linecap="round"><g transform="translate(-304.1163556042867 326.82169046687704) rotate(89.99999999999994 315.3596067922536 2.2737367544323206e-13)"><path d="M0 0 C200.39 0, 400.79 0, 630.72 0" stroke="#000000" stroke-width="1.5" fill="none" stroke-dasharray="1.5 7"></path></g></g><mask></mask><g stroke-linecap="round"><g transform="translate(11.241995678763715 11.424549751181985) rotate(0 315.5984036815134 0)"><path d="M0 0 C169.93 0, 339.85 0, 631.2 0" stroke="#000000" stroke-width="1.5" fill="none" stroke-dasharray="1.5 7"></path></g></g><mask></mask><g stroke-linecap="round"><g transform="translate(324.79581524416983 326.0719918956065) rotate(0 53.221739644723414 -77.11754503865791)"><path d="M0.59 1.03 C18.3 -24.66, 89.61 -129.28, 107 -155.27 M-0.55 0.53 C17.02 -24.93, 88.65 -128.38, 106.62 -154.09" stroke="#1971c2" stroke-width="1" fill="none"></path></g><g transform="translate(324.79581524416983 326.0719918956065) rotate(0 53.221739644723414 -77.11754503865791)"><path d="M100.67 -123.29 C100.88 -137.43, 104.31 -147.17, 107.97 -154.87 M98.31 -126.06 C99.82 -131.03, 103.07 -135.96, 105.74 -153.58" stroke="#1971c2" stroke-width="1" fill="none"></path></g><g transform="translate(324.79581524416983 326.0719918956065) rotate(0 53.221739644723414 -77.11754503865791)"><path d="M83.82 -135 C90.08 -144.94, 99.67 -150.4, 107.97 -154.87 M81.46 -137.77 C86.38 -140.28, 93.07 -142.82, 105.74 -153.58" stroke="#1971c2" stroke-width="1" fill="none"></path></g></g><mask></mask><g stroke-linecap="round"><g transform="translate(324.5768118425266 325.4804215244021) rotate(0 -51.04749223267356 54.40310056880048)"><path d="M-0.91 0.68 C-17.87 18.86, -85 90.83, -101.66 108.81 M0.81 -0.01 C-16.36 17.88, -85.84 89.46, -102.91 107.24" stroke="#1e1e1e" stroke-width="1" fill="none"></path></g><g transform="translate(324.5768118425266 325.4804215244021) rotate(0 -51.04749223267356 54.40310056880048)"><path d="M-89.57 78.89 C-92.78 88.52, -96.89 95.5, -102.91 108.51 M-91.04 78.93 C-95.6 90.2, -100.27 99.65, -103.3 106.4" stroke="#1e1e1e" stroke-width="1" fill="none"></path></g><g transform="translate(324.5768118425266 325.4804215244021) rotate(0 -51.04749223267356 54.40310056880048)"><path d="M-74.81 93.14 C-82.55 98.26, -91.22 100.83, -102.91 108.51 M-76.28 93.19 C-86.23 99.35, -96.25 103.62, -103.3 106.4" stroke="#1e1e1e" stroke-width="1" fill="none"></path></g></g><mask></mask><g stroke-linecap="round"><g transform="translate(325.0279781194914 327.71427890390805) rotate(0 81.23834709424295 53.6380077956851)"><path d="M0.2 0.35 C27.63 18.34, 136.15 90.01, 163.64 107.79 M-1.16 -0.51 C26.16 17.1, 134.77 87.69, 162.45 105.78" stroke="#1e1e1e" stroke-width="1" fill="none"></path></g><g transform="translate(325.0279781194914 327.71427890390805) rotate(0 81.23834709424295 53.6380077956851)"><path d="M133.81 98.22 C139.98 102.15, 145.05 100.22, 161.12 105.13 M133.1 98.86 C140.76 100.03, 148.81 102.7, 161.52 105.55" stroke="#1e1e1e" stroke-width="1" fill="none"></path></g><g transform="translate(325.0279781194914 327.71427890390805) rotate(0 81.23834709424295 53.6380077956851)"><path d="M145.01 81.03 C148.71 88.74, 151.32 90.57, 161.12 105.13 M144.3 81.67 C148.84 87.49, 153.84 94.84, 161.52 105.55" stroke="#1e1e1e" stroke-width="1" fill="none"></path></g></g><mask></mask><g stroke-linecap="round"><g transform="translate(723.6599397012241 332.5493237012215) rotate(0 316.7189463863323 0)"><path d="M0 0 C193.01 0, 386.02 0, 633.44 0 M0 0 C127.49 0, 254.98 0, 633.44 0" stroke="#e03131" stroke-width="4" fill="none"></path></g><g transform="translate(723.6599397012241 332.5493237012215) rotate(0 316.7189463863323 0)"><path d="M605.25 10.26 C613.84 7.13, 622.43 4.01, 633.44 0 M605.25 10.26 C610.92 8.2, 616.59 6.13, 633.44 0" stroke="#e03131" stroke-width="4" fill="none"></path></g><g transform="translate(723.6599397012241 332.5493237012215) rotate(0 316.7189463863323 0)"><path d="M605.25 -10.26 C613.84 -7.13, 622.43 -4.01, 633.44 0 M605.25 -10.26 C610.92 -8.2, 616.59 -6.13, 633.44 0" stroke="#e03131" stroke-width="4" fill="none"></path></g></g><mask></mask><g stroke-linecap="round"><g transform="translate(722.3625481901848 332.52864622346806) rotate(270 316.7189463863323 0)"><path d="M0 0 C183 0, 366 0, 633.44 0 M0 0 C218.53 0, 437.06 0, 633.44 0" stroke="#1971c2" stroke-width="4" fill="none"></path></g><g transform="translate(722.3625481901848 332.52864622346806) rotate(270 316.7189463863323 0)"><path d="M605.25 10.26 C613.39 7.3, 621.54 4.33, 633.44 0 M605.25 10.26 C614.97 6.72, 624.7 3.18, 633.44 0" stroke="#1971c2" stroke-width="4" fill="none"></path></g><g transform="translate(722.3625481901848 332.52864622346806) rotate(270 316.7189463863323 0)"><path d="M605.25 -10.26 C613.39 -7.3, 621.54 -4.33, 633.44 0 M605.25 -10.26 C614.97 -6.72, 624.7 -3.18, 633.44 0" stroke="#1971c2" stroke-width="4" fill="none"></path></g></g><mask></mask><g stroke-linecap="round"><g transform="translate(1038.2367515437504 331.2901213615378) rotate(0 -106.07809833121121 106.40053654571648)"><path d="M-0.54 -0.82 C-36.08 34.98, -177.47 177.89, -212.65 213.62 M1.38 1.37 C-34.37 36.94, -178.01 176.91, -213.54 211.94" stroke="#1e1e1e" stroke-width="1" fill="none"></path></g><g transform="translate(1038.2367515437504 331.2901213615378) rotate(0 -106.07809833121121 106.40053654571648)"><path d="M-201.94 185.08 C-203.99 196.25, -208.7 203.75, -212.57 211.85 M-200.51 185.23 C-204.35 192.08, -207.17 198.9, -213.76 210.97" stroke="#1e1e1e" stroke-width="1" fill="none"></path></g><g transform="translate(1038.2367515437504 331.2901213615378) rotate(0 -106.07809833121121 106.40053654571648)"><path d="M-187.58 199.74 C-194.55 205.67, -204.32 208.01, -212.57 211.85 M-186.15 199.89 C-193.81 202.86, -200.31 205.92, -213.76 210.97" stroke="#1e1e1e" stroke-width="1" fill="none"></path></g></g><mask></mask><g stroke-linecap="round"><g transform="translate(1038.6879178207155 333.5239787410437) rotate(0 25.55773383644612 39.51771338208323)"><path d="M0.12 0.85 C8.94 14.12, 43.89 65.83, 52.4 78.78 M-1.28 0.25 C7.53 13.25, 43.43 64.34, 52.04 77.06" stroke="#1e1e1e" stroke-width="1" fill="none"></path></g><g transform="translate(1038.6879178207155 333.5239787410437) rotate(0 25.55773383644612 39.51771338208323)"><path d="M28.99 61.59 C34.97 63.96, 40.91 68.45, 51.16 79.05 M26.85 60.09 C32.55 63.57, 37.73 66.01, 52.6 76.65" stroke="#1e1e1e" stroke-width="1" fill="none"></path></g><g transform="translate(1038.6879178207155 333.5239787410437) rotate(0 25.55773383644612 39.51771338208323)"><path d="M45.87 49.92 C47.47 55.29, 49.1 62.75, 51.16 79.05 M43.73 48.42 C45.86 54.43, 47.46 59.34, 52.6 76.65" stroke="#1e1e1e" stroke-width="1" fill="none"></path></g></g><mask></mask><g transform="translate(203.24455473894568 453.89005217079875) rotate(0 50.49994659423828 12.5)"><text x="0" y="0" font-family="Virgil, Segoe UI Emoji" font-size="20px" fill="#1e1e1e" text-anchor="start" style="white-space: pre;" direction="ltr" dominant-baseline="text-before-edge">v1 (-2, -2)</text></g><g transform="translate(491.7961423481098 392.5668823221904) rotate(0 50.48994445800781 12.5)"><text x="0" y="0" font-family="Virgil, Segoe UI Emoji" font-size="20px" fill="#1e1e1e" text-anchor="start" style="white-space: pre;" direction="ltr" dominant-baseline="text-before-edge">v2 (3, -2)</text></g><g transform="translate(840.2374738665775 561.6128177173305) rotate(0 54.219940185546875 12.5)"><text x="0" y="0" font-family="Virgil, Segoe UI Emoji" font-size="20px" fill="#1e1e1e" text-anchor="start" style="white-space: pre;" direction="ltr" dominant-baseline="text-before-edge">v1' (-8, -8)</text></g><g transform="translate(1113.7321736047888 397.0874374170571) rotate(0 53.149940490722656 12.5)"><text x="0" y="0" font-family="Virgil, Segoe UI Emoji" font-size="20px" fill="#1e1e1e" text-anchor="start" style="white-space: pre;" direction="ltr" dominant-baseline="text-before-edge">v2' (2, -3)</text></g></svg>